<svg xmlns="http://www.w3.org/2000/svg"  viewBox="0 0 24 24" width="48px" height="48px" baseProfile="basic"><path d="M11.612,15.61l-0.809,1.852c-0.311,0.712-1.296,0.712-1.607,0L8.388,15.61c-0.72-1.648-2.015-2.96-3.631-3.678l-2.226-0.988	c-0.708-0.314-0.708-1.344,0-1.658l2.156-0.957c1.657-0.736,2.976-2.096,3.683-3.801L9.19,2.554c0.304-0.733,1.316-0.733,1.62,0	l0.819,1.974c0.707,1.705,2.026,3.065,3.683,3.801l2.156,0.957c0.708,0.314,0.708,1.344,0,1.658l-2.226,0.988	C13.627,12.649,12.332,13.961,11.612,15.61z"/><path d="M18.713,21.125l-0.247,0.565c-0.18,0.414-0.753,0.414-0.934,0l-0.247-0.565c-0.44-1.008-1.231-1.81-2.219-2.249l-0.76-0.337	c-0.411-0.182-0.411-0.78,0-0.962l0.717-0.319c1.013-0.45,1.819-1.282,2.251-2.324l0.253-0.611c0.176-0.426,0.765-0.426,0.941,0	l0.253,0.611c0.432,1.042,1.238,1.874,2.251,2.324l0.717,0.319c0.411,0.182,0.411,0.78,0,0.962l-0.76,0.337	C19.945,19.315,19.153,20.117,18.713,21.125z"/></svg>