<svg width="220" height="50" viewBox="0 0 220 50" fill="none" xmlns="http://www.w3.org/2000/svg">
<path d="M1 35.2854H5.56427V3.95693H1V1.59888H8.33276V17.6187H8.445C10.5775 13.8758 14.0568 11.8546 18.3592 11.8546C25.4675 11.8546 30.6303 17.207 30.6303 24.7303C30.6303 32.4782 25.4301 38.0552 18.2095 38.0552C14.0194 38.0552 10.7645 36.296 8.445 32.7776H8.33276V37.6809H1V35.2854ZM18.0973 35.772C23.8214 35.772 27.8244 31.243 27.8244 24.7303C27.8244 18.517 23.8214 14.1378 18.247 14.1378C12.5229 14.1378 8.25794 18.7042 8.25794 24.88C8.29535 31.3179 12.3359 35.772 18.0973 35.772Z" fill="white"/>
<path d="M45.0713 11.8546C52.1796 11.8546 57.6044 17.5813 57.6044 25.1421C57.6044 32.7028 52.1796 38.4296 45.0713 38.4296C37.963 38.4296 32.5757 32.7028 32.5757 25.1421C32.5757 17.5813 37.963 11.8546 45.0713 11.8546ZM45.0713 35.9218C50.6457 35.9218 54.7984 31.3554 54.7984 25.1421C54.7984 18.9288 50.6457 14.3624 45.0713 14.3624C39.4969 14.3624 35.419 18.9288 35.419 25.1421C35.419 31.3554 39.4969 35.9218 45.0713 35.9218Z" fill="white"/>
<path d="M72.6817 11.8546C79.7899 11.8546 85.2147 17.5813 85.2147 25.1421C85.2147 32.7028 79.7899 38.4296 72.6817 38.4296C65.5734 38.4296 60.186 32.7028 60.186 25.1421C60.186 17.5813 65.536 11.8546 72.6817 11.8546ZM72.6817 35.9218C78.2561 35.9218 82.4088 31.3554 82.4088 25.1421C82.4088 18.9288 78.2561 14.3624 72.6817 14.3624C67.1073 14.3624 62.9919 18.9288 62.9919 25.1421C62.9919 31.3554 67.1073 35.9218 72.6817 35.9218Z" fill="white"/>
<path d="M84.8779 35.2854H89.4796V3.95693H84.8779V1.59888H92.2481V24.3186L105.492 15.0361V14.9238H101.639V12.5283H112.114V14.9238H108.896L95.6526 24.3186L108.186 35.2854H112.6V37.6809H107.138L92.2481 24.6929V35.2854H96.8872V37.6809H84.8779V35.2854Z" fill="white"/>
<path d="M114.134 14.9239V12.5284H118.586V6.91395L121.355 4.74304V12.5284H126.63V14.9239H121.392V32.4783C121.392 35.3978 121.879 36.4833 126.667 35.2855V37.681C121.841 39.0659 118.661 38.0553 118.661 33.6386V14.9239H114.134Z" fill="#77BC1F"/>
<path d="M140.322 11.8546C147.431 11.8546 152.855 17.5813 152.855 25.1421C152.855 32.7028 147.468 38.4296 140.322 38.4296C133.177 38.4296 127.827 32.7028 127.827 25.1421C127.827 17.5813 133.214 11.8546 140.322 11.8546ZM140.322 35.9218C145.897 35.9218 150.049 31.3554 150.049 25.1421C150.049 18.9288 145.897 14.3624 140.322 14.3624C134.748 14.3624 130.633 18.9288 130.633 25.1421C130.633 31.3554 134.748 35.9218 140.322 35.9218Z" fill="#77BC1F"/>
<path d="M156.26 14.9238H152.032V12.5283H159.066V17.8433H159.178C161.086 14.2875 164.753 12.1541 168.943 12.1541C175.901 12.1541 181.176 17.731 181.176 25.1795C181.176 32.9274 176.088 38.4296 168.793 38.4296C164.453 38.4296 161.049 36.4084 159.178 32.7029H159.066V46.5892H219V48.9847H1V46.5892H156.26V14.9238ZM168.793 35.9218C174.517 35.9218 178.52 31.5425 178.52 25.1795C178.52 18.9662 174.367 14.5495 168.531 14.5495C162.919 14.5495 158.916 18.9662 158.916 25.1795C158.916 31.3928 162.994 35.9218 168.793 35.9218Z" fill="#77BC1F"/>
<path d="M182.523 35.2854H186.938V14.9238H182.523V12.5283H189.706V35.2854H194.008V37.6809H182.523V35.2854ZM187.499 1C188.696 1 189.631 1.93574 189.669 3.13348C189.631 4.33123 188.696 5.26696 187.499 5.30439C186.302 5.26696 185.366 4.2938 185.366 3.13348C185.404 1.93574 186.339 1 187.499 1Z" fill="#77BC1F"/>
<path d="M212.042 34.0503C208.899 36.7078 205.756 38.0178 202.726 38.0178C198.499 38.0178 195.057 34.724 195.057 30.5694C195.057 26.0404 198.947 22.8215 204.372 22.8215C206.879 22.8215 209.273 23.4578 212.042 24.8801V19.0785C212.042 15.7847 209.984 13.8009 205.345 13.8009C201.454 13.8009 198.985 15.1858 197.601 18.1053L195.543 17.5813C197.488 13.5389 200.481 11.8546 205.569 11.8546C212.042 11.8546 214.81 14.7367 214.81 18.9662V35.2855H218.963V37.681H212.042V34.0503ZM212.042 27.1633C209.161 25.5164 207.328 24.9175 204.859 24.9175C200.706 24.9175 197.9 27.313 197.9 30.7565C197.9 33.7509 200.219 35.9218 203.437 35.9218C206.355 35.9218 209.984 34.1626 212.042 31.7297V27.1633Z" fill="#77BC1F"/>
</svg>
